<?xml version="1.0" encoding="utf-8" ?>
<svg baseProfile="full" height="500px" version="1.1" viewBox="0,0,500,500" width="500px" xmlns="http://www.w3.org/2000/svg" xmlns:ev="http://www.w3.org/2001/xml-events" xmlns:xlink="http://www.w3.org/1999/xlink"><defs><linearGradient id="blueGradient" x1="0" x2="1" y1="0" y2="0"><stop offset="0" stop-color="#3a84ff" /><stop offset="1" stop-color="#3ac7ff" /></linearGradient></defs><path d="M 374,257 L 374,309 L 373,310 L 406,310 L 406,305 L 382,305 L 381,304 L 381,264 L 380,263 L 380,259 L 381,258 L 381,257 Z" fill="url(#blueGradient)" stroke="none" /><path d="M 324,257 L 323,258 L 323,261 L 322,262 L 322,264 L 321,265 L 321,268 L 320,269 L 320,271 L 319,272 L 319,275 L 318,276 L 318,279 L 317,280 L 317,282 L 316,283 L 316,286 L 315,287 L 315,290 L 314,291 L 314,294 L 313,295 L 313,297 L 312,298 L 312,301 L 311,302 L 311,305 L 310,306 L 310,308 L 309,309 L 309,310 L 316,310 L 316,309 L 317,308 L 317,305 L 318,304 L 318,301 L 319,300 L 319,297 L 321,295 L 335,295 L 337,297 L 337,299 L 338,300 L 338,304 L 339,305 L 339,308 L 340,309 L 340,310 L 347,310 L 347,308 L 346,307 L 346,304 L 345,303 L 345,301 L 344,300 L 344,297 L 343,296 L 343,293 L 342,292 L 342,289 L 341,288 L 341,285 L 340,284 L 340,282 L 339,281 L 339,278 L 338,277 L 338,274 L 337,273 L 337,270 L 336,269 L 336,266 L 335,265 L 335,263 L 334,262 L 334,259 L 333,258 L 333,257 Z" fill="url(#blueGradient)" stroke="none" /><path d="M 253,257 L 253,263 L 264,263 L 265,264 L 265,301 L 264,302 L 265,303 L 263,305 L 253,305 L 253,310 L 283,310 L 283,305 L 273,305 L 272,304 L 272,264 L 273,263 L 283,263 L 283,257 Z" fill="url(#blueGradient)" stroke="none" /><path d="M 204,256 L 203,257 L 201,257 L 200,258 L 199,258 L 198,259 L 197,259 L 195,261 L 195,262 L 194,263 L 194,264 L 193,265 L 193,267 L 192,268 L 192,299 L 193,300 L 193,302 L 194,303 L 194,304 L 195,305 L 195,306 L 197,308 L 198,308 L 200,310 L 202,310 L 203,311 L 214,311 L 215,310 L 216,310 L 217,309 L 218,309 L 222,305 L 222,304 L 223,303 L 223,302 L 224,301 L 224,298 L 225,297 L 218,297 L 218,298 L 217,299 L 217,300 L 216,301 L 216,302 L 214,304 L 213,304 L 212,305 L 205,305 L 204,304 L 203,304 L 200,301 L 200,300 L 199,299 L 199,268 L 201,266 L 201,265 L 202,264 L 203,264 L 204,263 L 205,263 L 206,262 L 211,262 L 212,263 L 213,263 L 217,267 L 217,268 L 218,269 L 218,270 L 225,270 L 224,269 L 224,266 L 223,265 L 223,264 L 222,263 L 222,262 L 219,259 L 218,259 L 217,258 L 216,258 L 215,257 L 213,257 L 212,256 Z" fill="url(#blueGradient)" stroke="none" /><path d="M 144,256 L 143,257 L 140,257 L 139,258 L 138,258 L 134,262 L 134,263 L 133,264 L 133,265 L 132,266 L 132,269 L 131,270 L 131,298 L 132,299 L 132,302 L 133,303 L 133,304 L 138,309 L 139,309 L 140,310 L 142,310 L 143,311 L 152,311 L 153,310 L 155,310 L 156,309 L 157,309 L 159,307 L 160,307 L 160,306 L 162,304 L 162,303 L 163,302 L 163,300 L 164,299 L 164,268 L 163,267 L 163,265 L 162,264 L 162,263 L 160,261 L 160,260 L 159,259 L 158,259 L 157,258 L 156,258 L 155,257 L 153,257 L 152,256 Z" fill="url(#blueGradient)" stroke="none" /><path d="M 84,256 L 83,257 L 80,257 L 79,258 L 78,258 L 76,260 L 75,260 L 75,261 L 73,263 L 73,265 L 72,266 L 72,274 L 73,275 L 73,277 L 75,279 L 75,280 L 76,280 L 79,283 L 80,283 L 81,284 L 82,284 L 83,285 L 84,285 L 85,286 L 87,286 L 88,287 L 89,287 L 90,288 L 91,288 L 92,289 L 93,289 L 97,293 L 97,295 L 98,296 L 98,298 L 97,299 L 97,300 L 96,301 L 96,302 L 95,303 L 94,303 L 93,304 L 92,304 L 91,305 L 84,305 L 83,304 L 82,304 L 78,300 L 78,299 L 77,298 L 77,296 L 71,296 L 70,297 L 70,299 L 71,300 L 71,302 L 72,303 L 72,304 L 77,309 L 78,309 L 79,310 L 81,310 L 82,311 L 94,311 L 95,310 L 96,310 L 97,309 L 98,309 L 99,308 L 100,308 L 101,307 L 101,306 L 103,304 L 103,303 L 104,302 L 104,291 L 103,290 L 103,289 L 101,287 L 101,286 L 99,284 L 98,284 L 96,282 L 95,282 L 94,281 L 92,281 L 91,280 L 89,280 L 88,279 L 87,279 L 86,278 L 84,278 L 79,273 L 79,267 L 83,263 L 84,263 L 85,262 L 91,262 L 96,267 L 96,268 L 97,269 L 97,270 L 104,270 L 104,267 L 103,266 L 103,264 L 101,262 L 101,261 L 99,259 L 98,259 L 97,258 L 96,258 L 95,257 L 93,257 L 92,256 Z" fill="url(#blueGradient)" stroke="none" /><path d="M 125,246 L 125,253 L 366,253 L 366,246 Z" fill="white" stroke="none" /><path d="M 324,189 L 323,190 L 323,193 L 322,194 L 322,196 L 321,197 L 321,200 L 320,201 L 320,204 L 319,205 L 319,207 L 318,208 L 318,211 L 317,212 L 317,215 L 316,216 L 316,218 L 315,219 L 315,222 L 314,223 L 314,226 L 313,227 L 313,229 L 312,230 L 312,233 L 311,234 L 311,237 L 310,238 L 310,240 L 309,241 L 309,242 L 316,242 L 316,241 L 317,240 L 317,237 L 318,236 L 318,233 L 319,232 L 319,229 L 321,227 L 336,227 L 337,228 L 337,231 L 338,232 L 338,235 L 339,236 L 339,239 L 340,240 L 340,242 L 347,242 L 347,240 L 346,239 L 346,236 L 345,235 L 345,233 L 344,232 L 344,229 L 343,228 L 343,225 L 342,224 L 342,221 L 341,220 L 341,217 L 340,216 L 340,214 L 339,213 L 339,210 L 338,209 L 338,206 L 337,205 L 337,202 L 336,201 L 336,199 L 335,198 L 335,195 L 334,194 L 334,191 L 333,190 L 333,189 Z" fill="white" stroke="none" /><path d="M 253,189 L 252,190 L 252,192 L 253,193 L 253,213 L 252,214 L 252,223 L 253,224 L 253,239 L 252,240 L 252,242 L 259,242 L 259,221 L 260,220 L 268,220 L 269,221 L 269,222 L 270,223 L 270,224 L 271,225 L 271,227 L 272,228 L 272,229 L 273,230 L 273,231 L 274,232 L 274,233 L 275,234 L 275,235 L 276,236 L 276,237 L 277,238 L 277,240 L 278,241 L 278,242 L 286,242 L 286,241 L 285,240 L 285,239 L 284,238 L 284,237 L 283,236 L 283,235 L 282,234 L 282,233 L 281,232 L 281,230 L 280,229 L 280,228 L 279,227 L 279,226 L 278,225 L 278,224 L 277,223 L 277,222 L 276,221 L 276,220 L 278,218 L 279,218 L 283,214 L 283,213 L 284,212 L 284,211 L 285,210 L 285,207 L 286,206 L 286,201 L 285,200 L 285,198 L 284,197 L 284,196 L 282,194 L 282,193 L 281,192 L 280,192 L 279,191 L 278,191 L 277,190 L 276,190 L 275,189 Z" fill="white" stroke="none" /><path d="M 203,189 L 203,192 L 202,193 L 202,195 L 201,196 L 201,199 L 200,200 L 200,203 L 199,204 L 199,207 L 198,208 L 198,210 L 197,211 L 197,214 L 196,215 L 196,218 L 195,219 L 195,221 L 194,222 L 194,225 L 193,226 L 193,228 L 192,229 L 192,232 L 191,233 L 191,236 L 190,237 L 190,240 L 189,241 L 189,242 L 196,242 L 196,240 L 197,239 L 197,236 L 198,235 L 198,232 L 199,231 L 199,228 L 200,227 L 215,227 L 217,229 L 217,232 L 218,233 L 218,236 L 219,237 L 219,241 L 220,242 L 227,242 L 227,241 L 226,240 L 226,237 L 225,236 L 225,234 L 224,233 L 224,230 L 223,229 L 223,226 L 222,225 L 222,222 L 221,221 L 221,218 L 220,217 L 220,215 L 219,214 L 219,211 L 218,210 L 218,207 L 217,206 L 217,203 L 216,202 L 216,199 L 215,198 L 215,196 L 214,195 L 214,192 L 213,191 L 213,189 Z" fill="white" stroke="none" /><path d="M 132,189 L 132,242 L 139,242 L 139,221 L 140,220 L 154,220 L 155,219 L 157,219 L 158,218 L 159,218 L 160,217 L 161,217 L 163,215 L 163,214 L 165,212 L 165,210 L 166,209 L 166,200 L 165,199 L 165,197 L 164,196 L 164,195 L 160,191 L 159,191 L 158,190 L 156,190 L 155,189 Z" fill="white" stroke="none" /></svg>